<svg xmlns="http://www.w3.org/2000/svg" xmlns:xlink="http://www.w3.org/1999/xlink" width="24" height="24" preserveAspectRatio="xMidYMid meet" viewBox="0 0 24 24" style="-ms-transform: rotate(360deg); -webkit-transform: rotate(360deg); transform: rotate(360deg);"><path d="M11.5 8a4.5 4.5 0 1 1 0 9a4.5 4.5 0 0 1 0-9zm0 1a3.5 3.5 0 1 0 0 7a3.5 3.5 0 0 0 0-7zM5 5h2l2-2h5l2 2h2a3 3 0 0 1 3 3v9a3 3 0 0 1-3 3H5a3 3 0 0 1-3-3V8a3 3 0 0 1 3-3zm4.414-1l-2 2H5a2 2 0 0 0-2 2v9a2 2 0 0 0 2 2h13a2 2 0 0 0 2-2V8a2 2 0 0 0-2-2h-2.414l-2-2H9.414z" fill="#e3e3e3"/><rect x="0" y="0" width="24" height="24" fill="rgba(0, 0, 0, 0)" /></svg>